<svg width="20" height="20" viewBox="0 0 20 20" fill="none" xmlns="http://www.w3.org/2000/svg">
<path d="M9.99992 9.99999C12.3011 9.99999 14.1666 8.13451 14.1666 5.83332C14.1666 3.53214 12.3011 1.66666 9.99992 1.66666C7.69873 1.66666 5.83325 3.53214 5.83325 5.83332C5.83325 8.13451 7.69873 9.99999 9.99992 9.99999Z" stroke="#292D32" stroke-width="1.5" stroke-linecap="round" stroke-linejoin="round"/>
<path d="M2.84155 18.3333C2.84155 15.1083 6.04988 12.5 9.99988 12.5C10.7999 12.5 11.5749 12.6083 12.2999 12.8083" stroke="#292D32" stroke-width="1.5" stroke-linecap="round" stroke-linejoin="round"/>
<path d="M18.3334 15C18.3334 15.2667 18.3001 15.525 18.2334 15.775C18.1584 16.1083 18.0251 16.4333 17.8501 16.7167C17.2751 17.6833 16.2167 18.3333 15.0001 18.3333C14.1417 18.3333 13.3667 18.0083 12.7834 17.475C12.5334 17.2583 12.3167 17 12.1501 16.7167C11.8417 16.2167 11.6667 15.625 11.6667 15C11.6667 14.1 12.0251 13.275 12.6084 12.675C13.2168 12.05 14.0667 11.6667 15.0001 11.6667C15.9834 11.6667 16.8751 12.0917 17.4751 12.775C18.0084 13.3667 18.3334 14.15 18.3334 15Z" stroke="#292D32" stroke-width="1.5" stroke-miterlimit="10" stroke-linecap="round" stroke-linejoin="round"/>
<path d="M16.2416 14.9833H13.7583" stroke="#292D32" stroke-width="1.5" stroke-miterlimit="10" stroke-linecap="round" stroke-linejoin="round"/>
<path d="M15 13.7667V16.2584" stroke="#292D32" stroke-width="1.5" stroke-miterlimit="10" stroke-linecap="round" stroke-linejoin="round"/>
</svg>
